<svg width="428" height="275" viewBox="0 0 428 275" fill="none" xmlns="http://www.w3.org/2000/svg">
<rect x="77" width="315" height="275" rx="40" fill="#2563EB" style="fill:#2563EB;fill:color(display-p3 0.1451 0.3882 0.9216);fill-opacity:1;"/>
<rect y="22.3301" width="255" height="278.325" rx="82" transform="rotate(-14.1482 0 22.3301)" fill="#2563EB" style="fill:#2563EB;fill:color(display-p3 0.1451 0.3882 0.9216);fill-opacity:1;"/>
<g opacity="0.15" clip-path="url(#clip0_5317_4637)">
<path d="M-72.7376 295.225C-49.5313 281.486 -25.5229 267.282 4.62707 267.282C34.7771 267.282 58.7854 281.476 82.0019 295.225L82.7734 293.917C59.425 280.077 35.2034 265.761 4.60677 265.761C-25.9899 265.761 -50.1505 280.077 -73.5599 293.917L-72.7376 295.225Z" fill="#E9EFFD" style="fill:#E9EFFD;fill:color(display-p3 0.9137 0.9373 0.9922);fill-opacity:1;"/>
<path d="M238.294 295.225C261.51 281.486 285.508 267.282 315.658 267.282C345.808 267.282 369.817 281.476 393.033 295.225L393.805 293.917C370.456 280.077 346.235 265.761 315.638 265.761C285.041 265.761 260.891 280.077 237.471 293.917L238.294 295.225Z" fill="#E9EFFD" style="fill:#E9EFFD;fill:color(display-p3 0.9137 0.9373 0.9922);fill-opacity:1;"/>
<path d="M-90.4516 295.245C-84.4825 291.98 -78.5134 288.442 -72.7372 285.025C-49.5308 271.266 -25.5631 257.072 4.6275 257.072C34.8181 257.072 58.7858 271.266 82.043 285.025C87.809 288.442 93.7781 291.98 99.7574 295.245L100.488 293.907C94.5395 290.652 88.5806 287.124 82.8145 283.717C59.466 269.877 35.2445 255.561 4.64783 255.561C-25.9488 255.561 -50.1095 269.877 -73.5188 283.717C-79.2747 287.134 -85.2337 290.652 -91.1825 293.907L-90.4516 295.245Z" fill="#E9EFFD" style="fill:#E9EFFD;fill:color(display-p3 0.9137 0.9373 0.9922);fill-opacity:1;"/>
<path d="M220.579 295.245C226.548 291.98 232.517 288.442 238.294 285.025C261.5 271.266 285.508 257.072 315.658 257.072C345.808 257.072 369.817 271.266 393.033 285.015C398.799 288.432 404.768 291.97 410.748 295.235L411.479 293.896C405.53 290.642 399.571 287.113 393.805 283.707C370.456 269.867 346.235 255.551 315.638 255.551C285.041 255.551 260.881 269.867 237.471 283.707C231.715 287.113 225.757 290.642 219.808 293.896L220.579 295.245Z" fill="#E9EFFD" style="fill:#E9EFFD;fill:color(display-p3 0.9137 0.9373 0.9922);fill-opacity:1;"/>
<path d="M-111.993 295.285C-98.2071 289.902 -85.2639 282.237 -72.7471 274.825C-49.5306 261.128 -25.5629 246.933 4.62772 246.933C34.8183 246.933 58.7861 261.128 82.0432 274.825C94.56 282.237 107.513 289.902 121.299 295.285L121.857 293.866C108.143 288.503 95.2401 280.898 82.7741 273.517C59.4256 259.668 35.2041 245.362 4.60742 245.362C-25.9892 245.362 -50.1499 259.678 -73.5592 273.517C-86.0253 280.898 -98.938 288.533 -112.592 293.866L-111.993 295.285Z" fill="#E9EFFD" style="fill:#E9EFFD;fill:color(display-p3 0.9137 0.9373 0.9922);fill-opacity:1;"/>
<path d="M199.028 295.285C212.824 289.902 225.768 282.237 238.295 274.825C261.501 261.128 285.509 246.933 315.659 246.933C345.809 246.933 369.818 261.128 393.034 274.876C405.47 282.186 418.332 289.8 432.026 295.174L432.574 293.765C419.002 288.432 406.18 280.848 393.806 273.487C370.457 259.637 346.236 245.331 315.639 245.331C285.042 245.331 260.882 259.647 237.472 273.487C225.006 280.868 212.093 288.503 198.44 293.836L199.028 295.285Z" fill="#E9EFFD" style="fill:#E9EFFD;fill:color(display-p3 0.9137 0.9373 0.9922);fill-opacity:1;"/>
<path d="M160.148 292.781C190.725 292.781 214.905 278.465 238.315 264.625C261.521 250.887 285.53 236.672 315.68 236.672C345.83 236.672 369.838 250.867 393.054 264.625C405.47 271.986 418.332 279.601 432.026 284.974L432.574 283.555C419.002 278.232 406.18 270.648 393.806 263.277C370.457 249.427 346.236 235.111 315.639 235.111C285.042 235.111 260.882 249.427 237.472 263.277C214.266 277.015 190.268 291.22 160.108 291.22C129.947 291.22 105.949 277.025 82.7327 263.277C59.3842 249.427 35.1627 235.111 4.56604 235.111V236.632C34.7262 236.632 58.7244 250.826 81.9409 264.585C105.391 278.465 129.572 292.781 160.148 292.781Z" fill="#E9EFFD" style="fill:#E9EFFD;fill:color(display-p3 0.9137 0.9373 0.9922);fill-opacity:1;"/>
<path d="M160.148 282.581C190.725 282.581 214.905 268.265 238.315 254.426C261.521 240.677 285.53 226.473 315.68 226.473C345.83 226.473 369.838 240.667 393.054 254.426C405.47 261.787 418.332 269.401 432.026 274.774L432.574 273.355C419.002 268.032 406.18 260.448 393.806 253.077C370.457 239.227 346.236 224.911 315.639 224.911C285.042 224.911 260.882 239.227 237.472 253.077C214.266 266.815 190.268 281.02 160.108 281.02C129.947 281.02 105.949 266.826 82.7327 253.077C59.3842 239.227 35.1627 224.911 4.56604 224.911V226.432C34.7262 226.432 58.7244 240.627 81.9409 254.385C105.391 268.225 129.572 282.581 160.148 282.581Z" fill="#E9EFFD" style="fill:#E9EFFD;fill:color(display-p3 0.9137 0.9373 0.9922);fill-opacity:1;"/>
<path d="M160.148 272.382C190.725 272.382 214.905 258.066 238.315 244.226C261.521 230.478 285.53 216.273 315.68 216.273C345.83 216.273 369.838 230.468 393.054 244.216C405.47 251.587 418.332 259.201 432.026 264.575L432.574 263.155C419.002 257.822 406.18 250.248 393.806 242.877C370.457 229.038 346.236 214.722 315.639 214.722C285.042 214.722 260.882 229.038 237.472 242.877C214.266 256.626 190.268 270.83 160.108 270.83C129.947 270.83 105.949 256.636 82.7327 242.877C59.3842 229.038 35.1627 214.722 4.56604 214.722V216.243C34.7262 216.243 58.7244 230.437 81.9409 244.196C105.391 258.086 129.572 272.382 160.148 272.382Z" fill="#E9EFFD" style="fill:#E9EFFD;fill:color(display-p3 0.9137 0.9373 0.9922);fill-opacity:1;"/>
<path d="M160.148 262.141C190.725 262.141 214.905 247.825 238.315 233.976C261.521 220.237 285.53 206.033 315.68 206.033C345.83 206.033 369.838 220.227 393.054 233.976C405.47 241.377 418.332 248.961 432.026 254.365L432.574 252.956C419.002 247.623 406.18 240.039 393.806 232.678C370.457 218.838 346.236 204.522 315.639 204.522C285.042 204.522 260.882 218.838 237.472 232.678C214.266 246.416 190.268 260.631 160.108 260.631C129.947 260.631 105.949 246.436 82.7327 232.678C59.3842 218.838 35.1627 204.522 4.56604 204.522V206.043C34.7262 206.043 58.7244 220.237 81.9409 233.986C105.391 247.866 129.572 262.141 160.148 262.141Z" fill="#E9EFFD" style="fill:#E9EFFD;fill:color(display-p3 0.9137 0.9373 0.9922);fill-opacity:1;"/>
<path d="M160.148 252.003C190.725 252.003 214.905 237.686 238.315 223.837C261.521 210.098 285.53 195.894 315.68 195.894C345.83 195.894 369.838 210.088 393.054 223.837C405.47 231.177 418.332 238.822 432.026 244.165L432.574 242.756C419.002 237.423 406.18 229.839 393.806 222.478C370.457 208.639 346.236 194.322 315.639 194.322C285.042 194.322 260.882 208.639 237.472 222.478C214.266 236.216 190.268 250.431 160.108 250.431C129.947 250.431 105.949 236.237 82.7327 222.478C59.3842 208.639 35.1627 194.322 4.56604 194.322V195.843C34.7262 195.843 58.7244 210.038 81.9409 223.786C105.391 237.666 129.572 252.003 160.148 252.003Z" fill="#E9EFFD" style="fill:#E9EFFD;fill:color(display-p3 0.9137 0.9373 0.9922);fill-opacity:1;"/>
<path d="M160.148 241.772C190.725 241.772 214.905 227.456 238.315 213.617C261.521 199.879 285.53 185.664 315.68 185.664C345.83 185.664 369.838 199.858 393.054 213.617C405.47 220.978 418.332 228.592 432.026 233.965L432.574 232.556C419.002 227.223 406.18 219.639 393.806 212.278C370.457 198.429 346.236 184.113 315.639 184.113C285.042 184.113 260.882 198.429 237.472 212.278C214.266 226.017 190.268 240.221 160.108 240.221C129.947 240.221 105.949 226.027 82.7327 212.278C59.3842 198.429 35.1627 184.113 4.56604 184.113V185.633C34.7262 185.633 58.7244 199.828 81.9409 213.586C105.391 227.456 129.572 241.772 160.148 241.772Z" fill="#E9EFFD" style="fill:#E9EFFD;fill:color(display-p3 0.9137 0.9373 0.9922);fill-opacity:1;"/>
<path d="M160.148 231.573C190.725 231.573 214.905 217.257 238.315 203.417C261.521 189.679 285.53 175.464 315.68 175.464C345.83 175.464 369.838 189.659 393.054 203.417C405.47 210.778 418.332 218.392 432.026 223.766L432.574 222.346C419.002 217.023 406.18 209.44 393.806 202.069C370.457 188.219 346.236 173.903 315.639 173.903C285.042 173.903 260.882 188.219 237.472 202.069C214.266 215.807 190.268 230.011 160.108 230.011C129.947 230.011 105.949 215.817 82.7327 202.069C59.3842 188.219 35.1627 173.903 4.56604 173.903V175.424C34.7262 175.424 58.7244 189.618 81.9409 203.376C105.391 217.257 129.572 231.573 160.148 231.573Z" fill="#E9EFFD" style="fill:#E9EFFD;fill:color(display-p3 0.9137 0.9373 0.9922);fill-opacity:1;"/>
<path d="M160.148 221.373C190.725 221.373 214.905 207.057 238.315 193.217C261.521 179.469 285.53 165.264 315.68 165.264C345.83 165.264 369.838 179.459 393.054 193.217C405.47 200.578 418.332 208.192 432.026 213.566L432.574 212.147C419.002 206.814 406.18 199.24 393.806 191.869C370.457 178.029 346.236 163.713 315.639 163.713C285.042 163.713 260.882 178.029 237.472 191.869C214.266 205.617 190.268 219.822 160.108 219.822C129.947 219.822 105.949 205.627 82.7327 191.869C59.3842 178.029 35.1627 163.713 4.56604 163.713V165.234C34.7262 165.234 58.7244 179.428 81.9409 193.187C105.391 207.057 129.572 221.373 160.148 221.373Z" fill="#E9EFFD" style="fill:#E9EFFD;fill:color(display-p3 0.9137 0.9373 0.9922);fill-opacity:1;"/>
<path d="M160.148 211.173C190.725 211.173 214.905 196.857 238.315 183.007C261.521 169.269 285.53 155.065 315.68 155.065C345.83 155.065 369.818 169.269 393.034 183.058C405.47 190.378 418.332 197.993 432.026 203.336L432.574 201.916C419.002 196.583 406.18 188.999 393.806 181.639C370.457 167.799 346.236 153.483 315.639 153.483C285.042 153.483 260.882 167.799 237.472 181.639C214.266 195.387 190.268 209.592 160.108 209.592C129.947 209.592 105.949 195.397 82.7327 181.639C59.3842 167.799 35.1627 153.483 4.56604 153.483V155.004C34.7262 155.004 58.7244 169.198 81.9409 182.947C105.391 196.857 129.572 211.173 160.148 211.173Z" fill="#E9EFFD" style="fill:#E9EFFD;fill:color(display-p3 0.9137 0.9373 0.9922);fill-opacity:1;"/>
<path d="M160.148 200.974C190.725 200.974 214.905 186.657 238.315 172.808C261.521 159.07 285.53 144.865 315.68 144.865C345.83 144.865 369.838 159.059 393.054 172.808C405.47 180.169 418.332 187.783 432.026 193.197L432.574 191.788C419.002 186.455 406.18 178.871 393.806 171.51C370.457 157.67 346.236 143.354 315.639 143.354C285.042 143.354 260.882 157.67 237.472 171.51C214.266 185.248 190.268 199.463 160.108 199.463C129.947 199.463 105.949 185.268 82.7327 171.51C59.3842 157.67 35.1627 143.354 4.56604 143.354V144.875C34.7262 144.875 58.7244 159.07 81.9409 172.818C105.391 186.657 129.572 200.974 160.148 200.974Z" fill="#E9EFFD" style="fill:#E9EFFD;fill:color(display-p3 0.9137 0.9373 0.9922);fill-opacity:1;"/>
<path d="M160.148 190.774C190.725 190.774 214.905 176.458 238.315 162.608C261.521 148.87 285.53 134.665 315.68 134.665C345.83 134.665 369.838 148.86 393.054 162.608C405.47 169.969 418.332 177.583 432.026 182.957L432.574 181.547C419.002 176.214 406.18 168.63 393.806 161.27C370.457 147.42 346.236 133.114 315.639 133.114C285.042 133.114 260.882 147.43 237.472 161.27C214.266 175.008 190.268 189.222 160.108 189.222C129.947 189.222 105.949 175.028 82.7327 161.27C59.3842 147.43 35.1627 133.114 4.56604 133.114V134.635C34.7262 134.635 58.7244 148.829 81.9409 162.577C105.391 176.458 129.572 190.774 160.148 190.774Z" fill="#E9EFFD" style="fill:#E9EFFD;fill:color(display-p3 0.9137 0.9373 0.9922);fill-opacity:1;"/>
<path d="M160.148 180.564C190.725 180.564 214.905 166.248 238.315 152.408C261.521 138.67 285.53 124.455 315.68 124.455C345.83 124.455 369.838 138.65 393.054 152.408C405.47 159.739 418.332 167.383 432.026 172.757L432.574 171.338C419.002 166.015 406.18 158.431 393.806 151.06C370.457 137.21 346.236 122.894 315.639 122.894C285.042 122.894 260.882 137.21 237.472 151.06C214.306 164.808 190.308 179.003 160.148 179.003C129.988 179.003 105.99 164.808 82.7733 151.06C59.4248 137.21 35.2033 122.894 4.60666 122.894V124.415C34.7668 124.415 58.765 138.609 81.9815 152.368C105.391 166.248 129.572 180.564 160.148 180.564Z" fill="#E9EFFD" style="fill:#E9EFFD;fill:color(display-p3 0.9137 0.9373 0.9922);fill-opacity:1;"/>
<path d="M160.148 170.364C190.725 170.364 214.905 156.048 238.315 142.209C261.521 128.47 285.53 114.256 315.68 114.256C345.83 114.256 369.838 128.45 393.054 142.209C405.47 149.6 418.332 157.184 432.026 162.557L432.574 161.138C419.002 155.815 406.18 148.231 393.806 140.86C370.457 127.01 346.236 112.694 315.639 112.694C285.042 112.694 260.882 127.01 237.472 140.86C214.306 154.669 190.308 168.864 160.148 168.864C129.988 168.864 105.99 154.669 82.7733 140.921C59.4248 127.071 35.2033 112.755 4.60666 112.755V114.276C34.7668 114.276 58.765 128.47 81.9815 142.229C105.391 156.048 129.572 170.364 160.148 170.364Z" fill="#E9EFFD" style="fill:#E9EFFD;fill:color(display-p3 0.9137 0.9373 0.9922);fill-opacity:1;"/>
<path d="M160.148 160.164C190.725 160.164 214.905 145.848 238.315 131.999C261.521 118.26 285.53 104.056 315.68 104.056C345.83 104.056 369.838 118.25 393.054 131.999C405.47 139.37 418.332 146.984 432.026 152.358L432.574 150.938C419.002 145.605 406.18 138.031 393.806 130.66C370.457 116.821 346.236 102.505 315.639 102.505C285.042 102.505 260.882 116.821 237.472 130.66C214.266 144.409 190.268 158.613 160.108 158.613C129.947 158.613 105.949 144.419 82.7327 130.66C59.3842 116.821 35.1627 102.505 4.56604 102.505V104.025C34.7262 104.025 58.7244 118.22 81.9409 131.968C105.391 145.848 129.572 160.164 160.148 160.164Z" fill="#E9EFFD" style="fill:#E9EFFD;fill:color(display-p3 0.9137 0.9373 0.9922);fill-opacity:1;"/>
<path d="M160.148 149.965C190.725 149.965 214.905 135.649 238.315 121.799C261.501 108.03 285.509 93.8359 315.659 93.8359C345.809 93.8359 369.818 108.03 393.034 121.779C405.47 129.17 418.332 136.774 432.026 142.158L432.574 140.738C419.002 135.405 406.18 127.821 393.806 120.461C370.457 106.621 346.236 92.3049 315.639 92.3049C285.042 92.3049 260.882 106.621 237.472 120.461C214.266 134.199 190.268 148.414 160.108 148.414C129.947 148.414 105.949 134.219 82.7327 120.461C59.3842 106.621 35.1627 92.3049 4.56604 92.3049V93.8359C34.7262 93.8359 58.7244 108.03 81.9409 121.779C105.391 135.649 129.572 149.965 160.148 149.965Z" fill="#E9EFFD" style="fill:#E9EFFD;fill:color(display-p3 0.9137 0.9373 0.9922);fill-opacity:1;"/>
<path d="M160.148 139.765C190.725 139.765 214.905 125.449 238.315 111.599C261.501 97.8915 285.509 83.697 315.659 83.697C345.809 83.697 369.818 97.8915 393.034 111.64C405.47 118.96 418.332 126.574 432.026 131.948L432.574 130.539C419.002 125.206 406.18 117.622 393.806 110.261C370.457 96.4213 346.236 82.1052 315.639 82.1052C285.042 82.1052 260.882 96.4213 237.472 110.261C214.266 123.999 190.268 138.214 160.108 138.214C129.947 138.214 105.949 124.019 82.7327 110.261C59.3842 96.4213 35.1627 82.1052 4.56604 82.1052V83.697C34.7262 83.697 58.7244 97.8915 81.9409 111.64C105.391 125.449 129.572 139.765 160.148 139.765Z" fill="#E9EFFD" style="fill:#E9EFFD;fill:color(display-p3 0.9137 0.9373 0.9922);fill-opacity:1;"/>
<path d="M160.148 129.555C190.725 129.555 214.905 115.249 238.315 101.399C261.521 87.6612 285.53 73.4465 315.68 73.4465C345.83 73.4465 369.838 87.641 393.054 101.399C405.47 108.76 418.332 116.375 432.026 121.748L432.574 120.339C419.002 115.006 406.18 107.422 393.806 100.061C370.457 86.2114 346.236 71.8953 315.639 71.8953C285.042 71.8953 260.882 86.2114 237.472 100.061C214.266 113.799 190.268 128.004 160.108 128.004C129.947 128.004 105.949 113.809 82.7327 100.061C59.3842 86.2114 35.1627 71.8953 4.56604 71.8953V73.4161C34.7262 73.4161 58.7244 87.6105 81.9409 101.369C105.391 115.249 129.572 129.555 160.148 129.555Z" fill="#E9EFFD" style="fill:#E9EFFD;fill:color(display-p3 0.9137 0.9373 0.9922);fill-opacity:1;"/>
<path d="M160.148 119.355C190.725 119.355 214.905 105.039 238.315 91.1997C261.521 77.4615 285.53 63.2468 315.68 63.2468C345.83 63.2468 369.838 77.4413 393.054 91.1997C405.47 98.5606 418.332 106.175 432.026 111.548L432.574 110.129C419.002 104.806 406.18 97.2222 393.806 89.8513C370.457 76.0015 346.236 61.6854 315.639 61.6854C285.042 61.6854 260.882 76.0015 237.472 89.8513C214.266 103.589 190.268 117.794 160.108 117.794C129.947 117.794 105.949 103.6 82.7327 89.8513C59.3842 76.0015 35.1627 61.6854 4.56604 61.6854V63.2063C34.7262 63.2063 58.7244 77.4007 81.9409 91.1592C105.391 105.039 129.572 119.355 160.148 119.355Z" fill="#E9EFFD" style="fill:#E9EFFD;fill:color(display-p3 0.9137 0.9373 0.9922);fill-opacity:1;"/>
<path d="M160.148 109.156C190.725 109.156 214.905 94.8396 238.315 81C261.521 67.2517 285.53 53.0471 315.68 53.0471C345.83 53.0471 369.838 67.2415 393.054 81C405.47 88.3609 418.332 95.9752 432.026 101.349L432.574 99.9192C419.002 94.5963 406.18 87.0124 393.806 79.6414C370.457 65.8018 346.236 51.4857 315.639 51.4857C285.042 51.4857 260.882 65.8018 237.472 79.6516C214.266 93.3897 190.268 107.594 160.108 107.594C129.947 107.594 105.949 93.3999 82.7327 79.6516C59.3842 65.8018 35.1627 51.4857 4.56604 51.4857V53.0066C34.7262 53.0066 58.7244 67.201 81.9409 80.9595C105.391 94.8497 129.572 109.156 160.148 109.156Z" fill="#E9EFFD" style="fill:#E9EFFD;fill:color(display-p3 0.9137 0.9373 0.9922);fill-opacity:1;"/>
<path d="M160.148 98.956C190.725 98.956 214.905 84.6399 238.315 70.7902C261.521 57.052 285.53 42.8474 315.68 42.8474C345.83 42.8474 369.838 57.0419 393.054 70.7902C405.47 78.1612 418.332 85.7755 432.026 91.1491L432.574 89.7803C419.002 84.4473 406.18 76.8735 393.806 69.5026C370.457 55.663 346.236 41.3469 315.639 41.3469C285.042 41.3469 260.882 55.663 237.472 69.5026C214.266 83.2509 190.268 97.4555 160.108 97.4555C129.947 97.4555 105.949 83.261 82.7327 69.5026C59.3842 55.663 35.1627 41.3469 4.56604 41.3469V42.8677C34.7262 42.8677 58.7244 57.0621 81.9409 70.8105C105.391 84.6399 129.572 98.956 160.148 98.956Z" fill="#E9EFFD" style="fill:#E9EFFD;fill:color(display-p3 0.9137 0.9373 0.9922);fill-opacity:1;"/>
<path d="M160.148 88.7664C190.725 88.7664 214.905 74.4503 238.315 60.6006C261.521 46.8624 285.53 32.6578 315.68 32.6578C345.83 32.6578 369.838 46.8523 393.054 60.6006C405.47 67.9513 418.332 75.5859 432.026 80.9392L432.574 79.5299C419.002 74.1969 406.18 66.613 393.806 59.2521C370.457 45.4125 346.236 31.0964 315.639 31.0964C285.042 31.0964 260.882 45.4125 237.472 59.2521C214.266 72.9903 190.268 87.2051 160.108 87.2051C129.947 87.2051 105.949 73.0106 82.7327 59.2521C59.3842 45.4125 35.1627 31.0964 4.56604 31.0964V32.6173C34.7262 32.6173 58.7244 46.8117 81.9409 60.56C105.391 74.4402 129.572 88.7664 160.148 88.7664Z" fill="#E9EFFD" style="fill:#E9EFFD;fill:color(display-p3 0.9137 0.9373 0.9922);fill-opacity:1;"/>
<path d="M160.148 78.5566C190.725 78.5566 214.905 64.2405 238.315 50.3908C261.521 36.6526 285.53 22.448 315.68 22.448C345.83 22.448 369.838 36.6424 393.054 50.3908C405.47 57.7516 418.332 65.3659 432.026 70.7395L432.574 69.3302C419.002 63.9971 406.18 56.4133 393.806 49.0524C370.457 35.2128 346.236 20.8967 315.639 20.8967C285.042 20.8967 260.882 35.2128 237.472 49.0524C214.266 62.7906 190.268 77.0053 160.108 77.0053C129.947 77.0053 105.949 62.8109 82.7327 49.0524C59.3842 35.2128 35.1627 20.8967 4.56604 20.8967V22.4176C34.7262 22.4176 58.7244 36.612 81.9409 50.3603C105.391 64.2405 129.572 78.5566 160.148 78.5566Z" fill="#E9EFFD" style="fill:#E9EFFD;fill:color(display-p3 0.9137 0.9373 0.9922);fill-opacity:1;"/>
<path d="M160.148 68.3467C190.725 68.3467 214.905 54.0306 238.315 40.191C261.521 26.4528 285.53 12.2381 315.68 12.2381C345.83 12.2381 369.838 26.4325 393.054 40.191C405.47 47.5518 418.332 55.1661 432.026 60.5397L432.574 59.1304C419.002 53.7974 406.18 46.2135 393.806 38.8527C370.457 25.0029 346.236 10.6868 315.639 10.6868C285.042 10.6868 260.882 25.0029 237.472 38.8527C214.266 52.5909 190.268 66.7954 160.108 66.7954C129.947 66.7954 105.949 52.601 82.7327 38.8527C59.3842 25.0029 35.1627 10.6868 4.56604 10.6868V12.2077C34.7262 12.2077 58.7244 26.4021 81.9409 40.1606C105.391 54.0306 129.572 68.3467 160.148 68.3467Z" fill="#E9EFFD" style="fill:#E9EFFD;fill:color(display-p3 0.9137 0.9373 0.9922);fill-opacity:1;"/>
<path d="M160.148 58.147C190.725 58.147 214.905 43.8309 238.315 29.9913C261.521 16.2531 285.53 2.03838 315.68 2.03838C345.83 2.03838 369.818 16.2531 393.034 29.9609C405.47 37.3521 418.332 44.9664 432.026 50.34L432.574 48.9206C419.002 43.5977 406.18 36.0138 393.806 28.6428C370.457 14.7931 346.236 0.47699 315.639 0.47699C285.042 0.47699 260.882 14.7931 237.472 28.6428C214.266 42.381 190.268 56.5856 160.108 56.5856C129.947 56.5856 105.949 42.3912 82.7327 28.6428C59.3842 14.7931 35.1627 0.47699 4.56604 0.47699V1.99782C34.7262 1.99782 58.7244 16.1923 81.9409 29.9507C105.391 43.8309 129.572 58.147 160.148 58.147Z" fill="#E9EFFD" style="fill:#E9EFFD;fill:color(display-p3 0.9137 0.9373 0.9922);fill-opacity:1;"/>
<path d="M160.148 47.9473C190.725 47.9473 214.905 33.6311 238.315 19.7916C261.501 6.04323 285.509 -8.16136 315.659 -8.16136C345.809 -8.16136 369.818 6.04323 393.034 19.822C405.47 27.1524 418.332 34.7667 432.026 40.0998L432.574 38.6803C419.002 33.3574 406.18 25.7735 393.806 18.4025C370.416 4.61364 346.236 -9.68219 315.659 -9.68219C285.083 -9.68219 260.902 4.63392 237.493 18.4836C214.286 32.2218 190.288 46.4264 160.128 46.4264C129.968 46.4264 105.97 32.232 82.753 18.4836C59.4045 4.63392 35.183 -9.68219 4.58636 -9.68219V-8.16136C34.7465 -8.16136 58.7447 6.03309 81.9612 19.7916C105.391 33.6311 129.572 47.9473 160.148 47.9473Z" fill="#E9EFFD" style="fill:#E9EFFD;fill:color(display-p3 0.9137 0.9373 0.9922);fill-opacity:1;"/>
<path d="M160.148 37.7476C190.725 37.7476 214.905 23.4314 238.315 9.58172C261.501 -4.15647 285.509 -18.3611 315.659 -18.3611C345.809 -18.3611 369.818 -4.16661 393.034 9.58172C405.47 16.9527 418.332 24.567 432.026 29.9609L432.574 28.5414C419.002 23.2084 406.18 15.6346 393.806 8.26367C370.457 -5.57592 346.236 -19.892 315.639 -19.892C285.042 -19.892 260.882 -5.57592 237.472 8.26367C214.266 22.012 190.268 36.2166 160.108 36.2166C129.947 36.2166 105.949 22.0221 82.7327 8.26367C59.3842 -5.57592 35.1627 -19.892 4.56604 -19.892V-18.3712C34.7262 -18.3712 58.7244 -4.17675 81.9409 9.57158C105.391 23.4314 129.572 37.7476 160.148 37.7476Z" fill="#E9EFFD" style="fill:#E9EFFD;fill:color(display-p3 0.9137 0.9373 0.9922);fill-opacity:1;"/>
<path d="M160.148 27.5478C190.725 27.5478 214.905 13.2317 238.315 -0.618034C261.501 -14.3562 285.509 -28.5608 315.659 -28.5608C345.809 -28.5608 369.818 -14.3562 393.034 -0.618034C405.47 6.7428 418.332 14.3571 432.026 19.7307L432.574 18.3214C419.002 12.9884 406.18 5.40446 393.806 -1.95637C370.457 -15.7959 346.236 -30.1121 315.639 -30.1121C285.042 -30.1121 260.882 -15.7959 237.472 -1.95637C214.266 11.7818 190.268 25.9965 160.108 25.9965C129.947 25.9965 105.949 11.8021 82.7327 -1.95637C59.3842 -15.7959 35.1627 -30.1121 4.56604 -30.1121V-28.5912C34.7262 -28.5912 58.7244 -14.3968 81.9409 -0.648449C105.391 13.2317 129.572 27.5478 160.148 27.5478Z" fill="#E9EFFD" style="fill:#E9EFFD;fill:color(display-p3 0.9137 0.9373 0.9922);fill-opacity:1;"/>
<path d="M160.147 17.3481C190.724 17.3481 214.905 3.02184 238.314 -10.8177C250.76 -18.1989 263.652 -25.803 277.326 -31.1665L276.778 -32.5859C262.982 -27.2022 250.039 -19.5372 237.522 -12.1257C214.306 1.57198 190.307 15.8273 160.147 15.8273C129.987 15.8273 105.989 1.63282 82.7724 -12.1257C70.2556 -19.5372 57.3124 -27.2022 43.4657 -32.5859L42.9074 -31.1665C56.6627 -25.803 69.5348 -18.1989 82.0415 -10.8177C105.39 3.03198 129.571 17.3481 160.147 17.3481Z" fill="#E9EFFD" style="fill:#E9EFFD;fill:color(display-p3 0.9137 0.9373 0.9922);fill-opacity:1;"/>
<path d="M432.026 9.53101L432.574 8.1217C419.002 2.78865 406.18 -4.79524 393.806 -12.1561C381.431 -19.5169 368.315 -27.2022 354.55 -32.5859L353.991 -31.1665C367.676 -25.803 380.568 -18.1989 393.034 -10.8177C405.5 -3.43663 418.332 4.1574 432.026 9.53101Z" fill="#E9EFFD" style="fill:#E9EFFD;fill:color(display-p3 0.9137 0.9373 0.9922);fill-opacity:1;"/>
<path d="M160.148 7.1382C190.724 7.1382 214.905 -7.17791 238.314 -21.0175C244.07 -24.4343 250.029 -27.9525 255.988 -31.1564L255.257 -32.4947C249.278 -29.23 243.309 -25.6915 237.533 -22.2747C214.306 -8.56694 190.308 5.62751 160.148 5.62751C129.988 5.62751 105.989 -8.56694 82.773 -22.3254C77.0069 -25.7422 71.0378 -29.2807 65.0586 -32.5454L64.3277 -31.2071C70.2866 -27.9525 76.2354 -24.4242 82.0014 -21.0682C105.391 -7.17791 129.571 7.1382 160.148 7.1382Z" fill="#E9EFFD" style="fill:#E9EFFD;fill:color(display-p3 0.9137 0.9373 0.9922);fill-opacity:1;"/>
</g>
<defs>
<clipPath id="clip0_5317_4637">
<rect width="402" height="292" fill="white" style="fill:white;fill-opacity:1;" transform="matrix(-1 0 0 1 427.5 -14.3359)"/>
</clipPath>
</defs>
</svg>
